<?xml version="1.0" encoding="UTF-8"?>
<svg xmlns="http://www.w3.org/2000/svg" xmlns:xlink="http://www.w3.org/1999/xlink"
     width="420" height="240" viewBox="0 0 420 240">
<defs>
</defs>
<path d="M50,40 L370,40" stroke="#9090a8" stroke-width="2.5" fill="none" />
<path d="M50,200 L370,200" stroke="#9090a8" stroke-width="2.5" fill="none" />
<path d="M80,40 L80,65" stroke="#9090a8" stroke-width="2.5" fill="none" />
<circle cx="80" cy="83" r="18" fill="none" stroke="#F05454" stroke-width="2.5" />
<text x="74" y="80" font-size="15" fill="#F05454" font-family="Arial" font-weight="bold">+</text>
<text x="74" y="94" font-size="15" fill="#F05454" font-family="Arial" font-weight="bold">−</text>
<text x="57" y="92" font-size="13" fill="#F05454" font-family="Arial" font-weight="bold" text-anchor="end">VS₁</text>
<path d="M80,101 L80,140" stroke="#9090a8" stroke-width="2.5" fill="none" />
<path d="M80,140 L88,145.0 L72,150.0 L88,155.0 L72,160.0 L88,165.0 L72,170.0 L88,175.0 L72,180.0 L88,185.0 L80,190" stroke="#F5A623" stroke-width="2.5" fill="none" />
<text x="96" y="170" font-size="14" fill="#F5A623" font-family="Arial" font-weight="bold">R₁</text>
<path d="M80,190 L80,200" stroke="#9090a8" stroke-width="2.5" fill="none" />
<path d="M210,40 L210,140" stroke="#9090a8" stroke-width="2.5" fill="none" />
<path d="M210,140 L218,145.0 L202,150.0 L218,155.0 L202,160.0 L218,165.0 L202,170.0 L218,175.0 L202,180.0 L218,185.0 L210,190" stroke="#F5A623" stroke-width="2.5" fill="none" />
<text x="226" y="170" font-size="14" fill="#F5A623" font-family="Arial" font-weight="bold">R₂</text>
<path d="M210,190 L210,200" stroke="#9090a8" stroke-width="2.5" fill="none" />
<path d="M340,40 L340,65" stroke="#9090a8" stroke-width="2.5" fill="none" />
<circle cx="340" cy="83" r="18" fill="none" stroke="#F05454" stroke-width="2.5" />
<text x="334" y="80" font-size="15" fill="#F05454" font-family="Arial" font-weight="bold">+</text>
<text x="334" y="94" font-size="15" fill="#F05454" font-family="Arial" font-weight="bold">−</text>
<text x="363" y="92" font-size="13" fill="#F05454" font-family="Arial" font-weight="bold">VS₂</text>
<path d="M340,101 L340,140" stroke="#9090a8" stroke-width="2.5" fill="none" />
<path d="M340,140 L348,145.0 L332,150.0 L348,155.0 L332,160.0 L348,165.0 L332,170.0 L348,175.0 L332,180.0 L348,185.0 L340,190" stroke="#F5A623" stroke-width="2.5" fill="none" />
<text x="318" y="170" font-size="14" fill="#F5A623" font-family="Arial" font-weight="bold" text-anchor="end">R₃</text>
<path d="M340,190 L340,200" stroke="#9090a8" stroke-width="2.5" fill="none" />
<circle cx="80" cy="40" r="4" fill="#aaa" stroke="none" />
<circle cx="210" cy="40" r="4" fill="#aaa" stroke="none" />
<circle cx="340" cy="40" r="4" fill="#aaa" stroke="none" />
<text x="198" y="28" font-size="16" fill="#4A9EFF" font-family="Arial" font-weight="bold">V₁</text>
<path d="M210,200 L210,206" stroke="#888" stroke-width="2.5" fill="none" />
<path d="M198,206 L222,206" stroke="#888" stroke-width="2.5" fill="none" />
<path d="M202,211 L218,211" stroke="#888" stroke-width="2" fill="none" />
<path d="M206,216 L214,216" stroke="#888" stroke-width="2" fill="none" />
</svg>