<?xml version="1.0" encoding="UTF-8"?>
<svg xmlns="http://www.w3.org/2000/svg" xmlns:xlink="http://www.w3.org/1999/xlink"
     width="420" height="240" viewBox="0 0 420 240">
<defs>
</defs>
<path d="M50,40 L370,40" stroke="#000" stroke-width="1.2" fill="none" />
<path d="M50,200 L370,200" stroke="#000" stroke-width="1.2" fill="none" />
<path d="M80,40 L80,60" stroke="#000" stroke-width="1.2" fill="none" />
<circle cx="80" cy="78" r="15" fill="none" stroke="#000" stroke-width="1.2" />
<text x="75" y="74" font-size="14" fill="#000" font-family="Times New Roman" font-weight="bold">+</text>
<text x="75" y="84" font-size="14" fill="#000" font-family="Times New Roman" font-weight="bold">−</text>
<text x="80" y="102" font-size="13" fill="#000" font-family="Times New Roman" font-style="italic" text-anchor="middle">u_{S1}</text>
<path d="M80,93 L80,140" stroke="#000" stroke-width="1.2" fill="none" />
<path d="M80,140 L88,145.0 L72,150.0 L88,155.0 L72,160.0 L88,165.0 L72,170.0 L88,175.0 L72,180.0 L88,185.0 L80,190" stroke="#000" stroke-width="1.2" fill="none" />
<path d="M80,190 L80,200" stroke="#000" stroke-width="1.2" fill="none" />
<circle cx="80" cy="40" r="3" fill="#000" stroke="none" />
<path d="M200,40 L200,140" stroke="#000" stroke-width="1.2" fill="none" />
<path d="M200,140 L208,145.0 L192,150.0 L208,155.0 L192,160.0 L208,165.0 L192,170.0 L208,175.0 L192,180.0 L208,185.0 L200,190" stroke="#000" stroke-width="1.2" fill="none" />
<path d="M200,190 L200,200" stroke="#000" stroke-width="1.2" fill="none" />
<circle cx="200" cy="40" r="3" fill="#000" stroke="none" />
<path d="M340,40 L340,60" stroke="#000" stroke-width="1.2" fill="none" />
<circle cx="340" cy="78" r="15" fill="none" stroke="#000" stroke-width="1.2" />
<text x="335" y="74" font-size="14" fill="#000" font-family="Times New Roman" font-weight="bold">+</text>
<text x="335" y="84" font-size="14" fill="#000" font-family="Times New Roman" font-weight="bold">−</text>
<text x="340" y="102" font-size="13" fill="#000" font-family="Times New Roman" font-style="italic" text-anchor="middle">u_{S2}</text>
<path d="M340,93 L340,140" stroke="#000" stroke-width="1.2" fill="none" />
<path d="M340,140 L348,145.0 L332,150.0 L348,155.0 L332,160.0 L348,165.0 L332,170.0 L348,175.0 L332,180.0 L348,185.0 L340,190" stroke="#000" stroke-width="1.2" fill="none" />
<path d="M340,190 L340,200" stroke="#000" stroke-width="1.2" fill="none" />
<circle cx="340" cy="40" r="3" fill="#000" stroke="none" />
</svg>