<?xml version="1.0" encoding="UTF-8"?>
<svg xmlns="http://www.w3.org/2000/svg" width="660" height="340" viewBox="0 0 660 340">
<style>
  .mi { font-family: "Times New Roman","STSong","SimSun",serif; font-style: italic; }
  .rm { font-family: "Times New Roman","STSong","SimSun",serif; }
  .cap { font-family: "Times New Roman","STSong","SimSun",serif; font-size: 11px; fill: #94A3B8; }
</style>
<line x1="162" y1="72" x2="488" y2="72" stroke="#1E293B" stroke-width="1.5"/>
<line x1="72" y1="172" x2="488" y2="172" stroke="#1E293B" stroke-width="1.5"/>
<line x1="325" y1="72" x2="325" y2="172" stroke="#1E293B" stroke-width="1.5"/>
<line x1="488" y1="72" x2="488" y2="172" stroke="#1E293B" stroke-width="1.5"/>
<path d="M162,72 L182.375,65 L202.75,79 L223.125,65 L243.5,79 L263.875,65 L284.25,79 L304.625,65 L325,72" stroke="#1E293B" stroke-width="1.5" fill="none"/>
<path d="M325,72 L345.375,65 L365.75,79 L386.125,65 L406.5,79 L426.875,65 L447.25,79 L467.625,65 L488,72" stroke="#1E293B" stroke-width="1.5" fill="none"/>
<path d="M325,72 L318,88.66666666666667 L332,105.33333333333334 L318,122 L332,138.66666666666669 L318,155.33333333333334 L325,172" stroke="#1E293B" stroke-width="1.5" fill="none"/>
<path d="M488,72 L481,88.66666666666667 L495,105.33333333333334 L481,122 L495,138.66666666666669 L481,155.33333333333334 L488,172" stroke="#1E293B" stroke-width="1.5" fill="none"/>
<line x1="325" y1="172" x2="325" y2="295" stroke="#1E293B" stroke-width="1.5"/>
<line x1="311" y1="295" x2="339" y2="295" stroke="#1E293B" stroke-width="2"/>
<line x1="315" y1="300" x2="335" y2="300" stroke="#1E293B" stroke-width="1.5"/>
<line x1="319"  y1="305" x2="331"  y2="305" stroke="#1E293B" stroke-width="1"/>
<text x="92" y="127" class="mi" text-anchor="start" font-size="13">uₛ</text>
<text x="243.5" y="96" class="mi" text-anchor="middle" font-size="12">R₁</text>
<text x="406.5" y="96" class="mi" text-anchor="middle" font-size="12">R₂</text>
<text x="349" y="126" class="mi" text-anchor="start" font-size="12">R₃</text>
<text x="512" y="126" class="mi" text-anchor="start" font-size="12">R₄</text>
<circle cx="325" cy="72" r="3.5" fill="#1E293B" stroke="none"/>
<text x="315" y="58" class="mi" text-anchor="middle" font-size="13">②</text>
<line x1="235.5" y1="54" x2="251.5" y2="54" stroke="#2563EB" stroke-width="1.3"/>
<polygon points="251.5,54 246,56.2 246,51.8" fill="#2563EB" stroke="none"/>
<text x="258.5" y="58" class="mi" text-anchor="start" font-size="12" fill="#2563EB">I₂</text>
<line x1="398.5" y1="54" x2="414.5" y2="54" stroke="#2563EB" stroke-width="1.3"/>
<polygon points="414.5,54 409,56.2 409,51.8" fill="#2563EB" stroke="none"/>
<text x="421.5" y="58" class="mi" text-anchor="start" font-size="12" fill="#2563EB">I₃</text>
<line x1="319" y1="114" x2="319" y2="130" stroke="#2563EB" stroke-width="1.3"/>
<polygon points="319,130 316.8,124.5 321.2,124.5" fill="#2563EB" stroke="none"/>
<text x="326" y="134" class="mi" text-anchor="start" font-size="12" fill="#2563EB">I₄</text>
<rect x="390" y="195" width="230" height="64" rx="3" fill="none" stroke="#E2E8F0" stroke-width="1"/>
<text x="402" y="211" class="mi" text-anchor="start" font-size="13">节点②  KCL:</text>
<text x="402" y="233" class="mi" text-anchor="start" font-size="13">  I₂ = I₃ + I₄</text>
<text x="330" y="330" class="cap" text-anchor="middle">图6  KCL方程</text>
</svg>